HIERARCHY
ROOT Hips
{
	OFFSET 0.000000 0.000000 0.000000 
	CHANNELS 6 Xposition Yposition Zposition Zrotation Yrotation Xrotation
	JOINT LeftUpLeg
	{
		OFFSET 1.363060 -1.794630 0.839290 
		CHANNELS 3 Zrotation Yrotation Xrotation
		JOINT LeftLeg
		{
			OFFSET 2.448110 -6.726130 0.000000 
			CHANNELS 3 Zrotation Yrotation Xrotation
			JOINT LeftFoot
			{
				OFFSET 2.562200 -7.039590 0.000000 
				CHANNELS 3 Zrotation Yrotation Xrotation
				JOINT LeftToeBase
				{
					OFFSET 0.157640 -0.433110 2.322550 
					CHANNELS 3 Zrotation Yrotation Xrotation
					End Site
					{
						OFFSET 0.000000 0.000000 0.000000 
					}
				}
			}
		}
	}
	JOINT RightUpLeg
	{
		OFFSET -1.305520 -1.794630 0.839290 
		CHANNELS 3 Zrotation Yrotation Xrotation
		JOINT RightLeg
		{
			OFFSET -2.542530 -6.985550 0.000000 
			CHANNELS 3 Zrotation Yrotation Xrotation
			JOINT RightFoot
			{
				OFFSET -2.568260 -7.056230 0.000000 
				CHANNELS 3 Zrotation Yrotation Xrotation
				JOINT RightToeBase
				{
					OFFSET -0.164730 -0.452590 2.363150 
					CHANNELS 3 Zrotation Yrotation Xrotation
					End Site
					{
						OFFSET 0.000000 0.000000 0.000000 
					}
				}
			}
		}
	}
	JOINT Spine
	{
		OFFSET 0.028270 2.035590 -0.193380 
		CHANNELS 3 Zrotation Yrotation Xrotation
		JOINT Spine1
		{
			OFFSET 0.056720 2.048850 -0.042750 
			CHANNELS 3 Zrotation Yrotation Xrotation
			JOINT Neck1
			{
				OFFSET -0.054170 1.746240 0.172020 
				CHANNELS 3 Zrotation Yrotation Xrotation
				JOINT Head
				{
					OFFSET 0.104070 1.761360 -0.123970 
					CHANNELS 3 Zrotation Yrotation Xrotation
					End Site
					{
						OFFSET 0.000000 0.000000 0.000000 
					}
				}
			}
			JOINT LeftArm
			{
				OFFSET 3.362410 1.200890 -0.311210 
				CHANNELS 3 Zrotation Yrotation Xrotation
				JOINT LeftForeArm
				{
					OFFSET 4.983000 -0.000000 -0.000000 
					CHANNELS 3 Zrotation Yrotation Xrotation
					JOINT LeftHand
					{
						OFFSET 3.483560 -0.000000 -0.000000 
						CHANNELS 3 Zrotation Yrotation Xrotation
						JOINT LeftHandIndex1
						{
							OFFSET 0.715260 -0.000000 -0.000000 
							CHANNELS 3 Zrotation Yrotation Xrotation
							End Site
							{
								OFFSET 0.000000 0.000000 0.000000 
							}
						}
					}
				}
			}
			JOINT RightArm
			{
				OFFSET -3.136600 1.374050 -0.404650 
				CHANNELS 3 Zrotation Yrotation Xrotation
				JOINT RightForeArm
				{
					OFFSET -5.241900 -0.000000 -0.000000 
					CHANNELS 3 Zrotation Yrotation Xrotation
					JOINT RightHand
					{
						OFFSET -3.444170 -0.000000 -0.000000 
						CHANNELS 3 Zrotation Yrotation Xrotation
						JOINT RightHandIndex1
						{
							OFFSET -0.622530 -0.000000 -0.000000 
							CHANNELS 3 Zrotation Yrotation Xrotation
							End Site
							{
								OFFSET 0.000000 0.000000 0.000000 
							}
						}
					}
				}
			}
		}
	}
}
MOTION
Frames: 9
Frame Time: 0.041667
15.368958 17.752744 -15.474531 6.222949 -57.503420 0.358567 -17.734889 -9.617386 -12.995337 -1.074439 6.905733 19.301735 -3.524986 13.118753 3.965414 0.262300 -3.294700 -9.100400 22.667032 14.251584 -1.371220 -0.056250 -5.485125 17.789166 5.063425 -23.628748 -15.755658 -0.348200 3.791300 -10.490200 -1.107798 1.145589 4.693630 0.791386 1.368492 -6.783155 0.545000 3.465834 4.903872 -2.545600 1.638800 2.781200 -80.017740 1.092265 26.972827 18.154791 -23.138368 -5.485703 -0.686412 0.202338 -17.395329 -7.125000 0.000000 0.000000 73.000642 -6.047226 50.492722 -20.322505 25.049988 -6.277069 1.282296 2.963880 -8.281189 7.125000 0.000000 0.000000 
15.371891 17.753856 -15.475745 6.432442 -57.492212 0.226639 -17.831782 -9.767645 -12.923572 -1.086490 6.891503 19.251834 -3.568776 13.225675 3.826406 0.198400 -2.867900 -7.911300 22.514936 14.196494 -1.522992 -0.069084 -5.522352 17.875259 5.052220 -23.588819 -15.729623 -0.365000 3.880800 -10.741700 -1.172100 1.217422 4.707967 0.795222 1.406973 -6.748127 0.407799 3.416612 4.783878 -2.614000 1.607200 2.736100 -79.985850 0.971382 27.061316 18.169871 -23.146381 -5.490643 -0.696185 0.206136 -17.227127 -7.125000 0.000000 0.000000 73.047041 -6.055308 50.143035 -20.458817 25.226175 -6.394730 1.267841 3.111721 -7.459357 7.125000 0.000000 0.000000 
15.372295 17.754362 -15.476149 6.401759 -57.447613 0.267603 -17.839969 -9.601430 -13.062653 -1.078930 6.909090 19.281341 -3.533036 13.162233 4.049332 0.260200 -3.281700 -9.064100 22.474427 13.814794 -1.672877 -0.081721 -5.518551 17.856492 5.028741 -23.391292 -15.170498 -0.398200 4.051300 -11.221100 -1.145186 1.219151 4.660588 0.822061 1.414581 -6.814935 0.527504 3.394932 4.861682 -2.563800 1.603000 2.749000 -80.016982 1.013266 27.119991 18.211887 -23.204500 -5.519415 -0.682547 0.190965 -17.142429 -7.125000 0.000000 0.000000 72.997260 -6.104532 50.174825 -20.588909 25.383036 -6.480732 1.274435 3.145386 -7.383642 7.125000 0.000000 0.000000 
15.375531 17.755676 -15.481104 6.024192 -57.327876 0.663007 -17.636040 -9.408678 -13.357973 -1.066640 6.942170 19.326138 -3.512216 13.147881 4.328346 0.249000 -3.211100 -8.866900 22.656303 13.567120 -1.795722 -0.073413 -5.498560 17.781160 4.980711 -23.188260 -14.952892 -0.355000 3.828100 -10.593500 -1.139229 1.227267 4.640347 0.707556 1.408308 -6.810783 0.882584 3.313584 4.760053 -2.418100 1.565500 2.698900 -79.878929 0.969446 27.448644 18.289897 -23.313086 -5.573252 -0.664775 0.168503 -17.382300 -7.125000 0.000000 0.000000 73.049971 -6.037979 50.120888 -20.645157 25.425293 -6.488244 1.247607 3.073172 -7.436046 7.125000 0.000000 0.000000 
15.380183 17.756687 -15.485352 5.817535 -57.254043 0.900158 -17.493487 -9.533460 -13.413347 -1.065101 6.954441 19.341409 -3.524815 13.179515 4.303046 0.199900 -2.879200 -7.942700 22.833752 13.989755 -1.652102 -0.046019 -5.477154 17.714890 5.013281 -23.421756 -15.528291 -0.271300 3.350700 -9.256700 -1.129877 1.238859 4.700114 0.636276 1.398896 -6.691959 1.011234 3.291606 4.628141 -2.360300 1.549500 2.661000 -79.802192 0.722965 27.522055 18.280128 -23.281320 -5.560009 -0.672268 0.170036 -17.519427 -7.125000 0.000000 0.000000 73.039861 -5.881681 50.062626 -20.695234 25.460469 -6.497159 1.221041 3.017601 -7.297535 7.125000 0.000000 0.000000 
15.383621 17.757800 -15.486970 5.616546 -57.200953 1.042522 -17.351506 -9.748712 -13.282447 -1.068202 6.935342 19.293764 -3.566241 13.293745 4.353308 0.284400 -3.429900 -9.478000 23.018823 14.257214 -1.487137 -0.034456 -5.469534 17.694278 5.082671 -23.718151 -15.799960 -0.261800 3.291700 -9.092000 -1.116790 1.248851 4.646069 0.569244 1.399181 -6.829299 1.173153 3.266256 4.731728 -2.301900 1.546300 2.686400 -79.783309 0.731928 27.546223 18.262659 -23.259730 -5.546388 -0.687417 0.173402 -17.376738 -7.125000 0.000000 0.000000 73.049989 -6.071351 50.159805 -20.860561 25.646699 -6.582578 1.228338 2.972119 -7.458843 7.125000 0.000000 0.000000 
15.386453 17.759317 -15.487172 5.984874 -57.190267 0.592166 -17.589617 -9.783111 -13.105037 -1.076971 6.909355 19.248933 -3.530728 13.204310 4.401177 0.362700 -3.868900 -10.708000 22.787876 14.113899 -1.367825 -0.039813 -5.446226 17.688150 5.068312 -23.661544 -15.844237 -0.293900 3.485800 -9.634400 -1.182203 1.234230 4.604419 0.601070 1.409238 -7.045230 1.170124 3.269884 4.885998 -2.314400 1.557200 2.729900 -79.890525 0.903040 27.262976 18.302468 -23.322871 -5.573243 -0.692062 0.188002 -16.920600 -7.125000 0.000000 0.000000 73.053937 -6.331994 50.304881 -21.074569 25.901195 -6.716440 1.236912 2.993841 -7.651593 7.125000 0.000000 0.000000 
15.388880 17.760126 -15.488790 6.413350 -57.164010 0.124960 -17.866557 -9.784858 -12.969439 -1.089399 6.883221 19.192592 -3.539589 13.219552 4.307468 0.392900 -4.024800 -11.146400 22.530372 14.145588 -1.225880 -0.038541 -5.427995 17.697809 5.025159 -23.577732 -16.199454 -0.269900 3.341800 -9.231800 -1.208248 1.193289 4.620518 0.718823 1.406293 -7.125141 0.973089 3.323102 4.995435 -2.390900 1.584300 2.773400 -79.961296 1.010454 27.247236 18.392265 -23.440873 -5.622166 -0.711046 0.172115 -16.965781 -7.125000 0.000000 0.000000 72.974215 -6.427580 50.442699 -21.267871 26.138924 -6.857329 1.241102 3.084440 -7.790437 7.125000 0.000000 0.000000 
15.391610 17.759317 -15.493340 6.161473 -57.082729 0.362442 -17.707610 -9.775748 -13.001234 -1.091706 6.858267 19.081473 -3.679419 13.650823 4.631001 0.352300 -3.813400 -10.552300 22.716912 14.235113 -1.229147 -0.034128 -5.443747 17.720025 5.054203 -23.718939 -16.349854 -0.280300 3.405300 -9.409400 -1.157282 1.189513 4.611477 0.717740 1.399177 -7.148604 0.929616 3.311278 5.041293 -2.407900 1.579200 2.796800 -79.879071 1.036401 27.627906 18.497171 -23.579283 -5.683471 -0.705686 0.115396 -17.500671 -7.125000 0.000000 0.000000 72.966104 -6.500805 50.306751 -21.423834 26.319189 -6.954922 1.207741 3.108271 -7.756427 7.125000 0.000000 0.000000 
